<?xml version="1.0" encoding="UTF-8" standalone="no"?>
<!-- Created with Inkscape (http://www.inkscape.org/) -->

<svg
   width="16.0px"
   height="16.0px"
   viewBox="0 0 16.0 16.0"
   version="1.1"
   id="SVGRoot"
   sodipodi:docname="iqlogo.svg"
   inkscape:version="1.2.2 (732a01da63, 2022-12-09)"
   xmlns:inkscape="http://www.inkscape.org/namespaces/inkscape"
   xmlns:sodipodi="http://sodipodi.sourceforge.net/DTD/sodipodi-0.dtd"
   xmlns="http://www.w3.org/2000/svg"
   xmlns:svg="http://www.w3.org/2000/svg">
  <sodipodi:namedview
     id="namedview2091"
     pagecolor="#ffffff"
     bordercolor="#000000"
     borderopacity="0.25"
     inkscape:showpageshadow="2"
     inkscape:pageopacity="0.0"
     inkscape:pagecheckerboard="0"
     inkscape:deskcolor="#d1d1d1"
     inkscape:document-units="px"
     showgrid="true"
     inkscape:zoom="6.2502245"
     inkscape:cx="22.159204"
     inkscape:cy="39.038598"
     inkscape:window-width="1920"
     inkscape:window-height="1057"
     inkscape:window-x="-8"
     inkscape:window-y="-8"
     inkscape:window-maximized="1"
     inkscape:current-layer="layer1">
    <inkscape:grid
       type="xygrid"
       id="grid2577" />
  </sodipodi:namedview>
  <defs
     id="defs2086" />
  <g
     inkscape:label="Шар 1"
     inkscape:groupmode="layer"
     id="layer1">
    <rect
       y="5.8218002"
       width="11.436629"
       height="11.436629"
       rx="1.3342754"
       transform="rotate(-45.4987)"
       fill="#fe791c"
       id="rect6"
       x="-5.7056203"
       style="stroke-width:0.310672" />
    <path
       d="M 7.2283284,12.188546 3.3653756,8.3924195 3.949407,7.798136 C 4.1620928,7.5816913 4.3630358,7.4762801 4.5522032,7.4819031 c 0.192772,0.0019 0.3918813,0.1038572 0.5973281,0.3057324 L 8.4072027,10.98895 Z M 6.9406779,8.6177182 C 6.317035,8.0048563 5.9913271,7.3603066 5.9636151,6.6840675 5.9322375,6.0041939 6.2319739,5.3432708 6.8628541,4.7012683 7.4937351,4.0592963 8.1493453,3.7480349 8.8296229,3.7675759 c 0.6766426,0.015903 1.3267851,0.3303064 1.9504271,0.9431675 0.564956,0.5551705 0.888304,1.1397299 0.970041,1.753679 0.07807,0.6103461 -0.114917,1.210346 -0.578936,1.7999691 0.0764,0.00313 0.186962,-0.039832 0.331673,-0.1283999 0.148377,-0.084938 0.283829,-0.1897589 0.406421,-0.3144932 0.2271,-0.2311395 0.375787,-0.4888419 0.446062,-0.7731378 0.223776,0.2198933 0.385605,0.425807 0.485487,0.6177088 0.10715,0.1918085 0.148687,0.3660328 0.124579,0.522643 -0.01681,0.1565475 -0.05928,0.2914722 -0.127407,0.4048358 -0.0681,0.1133331 -0.167048,0.2360482 -0.296846,0.3681148 -0.328038,0.3338165 -0.688449,0.5060845 -1.081138,0.5168025 -0.392719,0.010689 -0.759468,-0.129768 -1.100275,-0.421395 -0.5637751,0.41226 -1.1388284,0.575488 -1.7251588,0.48968 C 8.0482528,9.4609435 7.4836072,9.1512655 6.9406779,8.6177182 Z M 10.122079,6.8332522 C 10.061369,6.5428054 9.8769279,6.2461762 9.5687726,5.9433647 9.2606176,5.6405525 8.9607884,5.461295 8.6693473,5.4056541 8.3779063,5.3500091 8.1114123,5.4450823 7.8698651,5.6908507 7.628318,5.9366537 7.5379126,6.2047634 7.5986489,6.4952102 7.6593849,6.7856257 7.8438309,7.0822862 8.151986,7.3850978 8.4601411,7.6879092 8.7599393,7.8671667 9.0513802,7.9228084 9.3428523,7.9784534 9.6093464,7.8833884 9.8508624,7.6375804 10.09241,7.3918087 10.182815,7.1236991 10.122079,6.8332522 Z"
       fill="#ffffff"
       id="path8"
       style="stroke-width:0.310672" />
  </g>
</svg>
